<?xml version="1.0" encoding="UTF-8" standalone="no"?>
<!DOCTYPE svg PUBLIC "-//W3C//DTD SVG 1.1//EN" "http://www.w3.org/Graphics/SVG/1.1/DTD/svg11.dtd">
<svg width="100%" height="100%" viewBox="0 0 2481 3508" version="1.1" xmlns="http://www.w3.org/2000/svg" xmlns:xlink="http://www.w3.org/1999/xlink" xml:space="preserve" xmlns:serif="http://www.serif.com/" style="fill-rule:evenodd;clip-rule:evenodd;stroke-linejoin:round;stroke-miterlimit:2;">
    <g transform="matrix(4.16667,0,0,4.16667,509.59,116.167)">
        <path d="M136.076,206.35C124.752,212.407 103.982,230.807 96.964,241C95.639,242.925 93.822,245.3 92.926,246.279C90.427,249.008 81.472,266.768 79.199,273.5C74.949,286.09 72.057,301.661 72.02,312.154C72.003,316.964 72.687,319.11 76.602,326.532C82.388,337.501 90.272,347.829 102.188,360.049C113.138,371.278 117.492,374.986 129.173,383.032C136.916,388.364 158.479,399.99 160.655,400.006C161.12,400.01 162.682,400.629 164.127,401.383C165.572,402.137 170.297,403.932 174.627,405.371C245.106,428.8 322.852,411.485 372.806,361.232C382.403,351.578 395.706,334.156 400.022,325.59C402.709,320.258 403,318.744 402.997,310.09C402.986,278.968 389.653,249.037 365.659,226.272C358.235,219.228 347.181,210.618 339.882,206.193C332.695,201.836 333.171,198.989 332.757,248.75C332.348,297.882 332.355,297.817 325.771,312.5C316.868,332.355 302.755,346.568 281.661,356.921C256.598,369.222 227.419,370.498 201.905,360.409C187.605,354.754 178.747,348.879 167.459,337.562C158.599,328.68 156.804,326.259 152.205,316.997C143.829,300.129 143.704,299.167 143.266,248.25C142.977,214.538 142.598,204 141.678,204C141.013,204 138.492,205.057 136.076,206.35ZM193.25,179.695L186,180.088L186,210.881C186,227.817 185.702,256.585 185.339,274.811L184.678,307.948L200.589,308.251L216.5,308.555L200,308.777L183.5,309L183.764,244.5L184.029,180L175.949,180C171.505,180 167.045,180.441 166.039,180.979C162.144,183.064 161.981,186.105 162.014,256.12L162.046,323.891L164.658,325.946C167.168,327.92 168.504,328 198.986,328C233.368,328 236.505,327.608 237.756,323.15C238.699,319.791 238.626,188.444 237.679,184.779C237.293,183.282 236.194,181.648 235.238,181.146C233.259,180.109 204.175,179.103 193.25,179.695ZM248.008,239.33C240.867,241.19 240.743,241.779 240.201,276.553C239.64,312.55 240.216,320.977 243.502,324.799L245.824,327.5L274.662,327.813C294.01,328.024 304.76,327.756 307.328,327C313.791,325.097 314,323.817 314,286.032L314,253L293.75,252.986C282.613,252.979 272.488,252.701 271.25,252.37C269.612,251.931 269,251.023 269,249.032C269,246.324 269.084,246.29 277.25,245.654C281.788,245.301 291.462,245.009 298.75,245.006C306.038,245.003 311.993,244.662 311.985,244.25C311.95,242.545 310.222,240.991 306.747,239.539C303.742,238.283 298.411,238.015 277.782,238.08C261.976,238.131 250.816,238.599 248.008,239.33ZM273,259.374C262.134,262.365 256.725,267.117 253.565,276.446C248.699,290.818 261.374,308 276.842,308C285.793,308 295.73,302.006 299.107,294.571C305.288,280.963 296.781,262.262 282.961,259.077C277.69,257.862 278.588,257.835 273,259.374ZM272.994,264.934C264.293,267.581 258.96,273.359 258.233,280.926C257.645,287.043 259.143,291.583 263.163,295.868C267.108,300.074 271.611,302 277.5,302C286.602,302 293.044,297.152 295.049,288.795C298.626,273.887 286.541,260.813 272.994,264.934ZM279.598,271.735C279.269,272.064 279,274.249 279,276.59C279,281.298 275.222,287 272.102,287C271.156,287 269.509,287.672 268.441,288.494C266.558,289.944 266.602,290.083 269.893,293.108C272.981,295.947 273.741,296.183 278.365,295.739C282.714,295.321 283.915,294.706 286.722,291.459C291.605,285.81 291.113,277.999 285.623,274C282.814,271.954 280.318,271.016 279.598,271.735ZM230.441,56.575C227.174,58.541 223.825,60.74 223,61.461C221.507,62.766 195.788,79.045 151,107.034C96.37,141.173 86.323,150.433 71.23,180.557C60.348,202.275 55.999,219.896 55.282,245.174C54.816,261.593 54.977,263.846 57.555,276.924C59.082,284.666 60.644,291 61.028,291C61.411,291 62.014,288.542 62.367,285.538C63.793,273.398 71.298,254.783 79.771,242.366C85.491,233.983 94.26,224.383 103.485,216.406C118.145,203.728 119.562,202.775 191.5,157.223C237.139,128.323 237.907,127.881 240.248,129.111C241.487,129.763 254.2,137.795 268.5,146.96C282.8,156.126 301.616,168.097 310.313,173.563C353.695,200.826 371.624,214.114 384.615,228.631C401.385,247.371 410.241,263.578 412.973,280.526C414.485,289.908 415.503,291.42 416.936,286.411C419.981,275.764 421.194,262.4 420.65,245.5C419.846,220.515 415.833,203.799 405.524,182.5C397.462,165.845 391.05,156.749 378.894,144.726L368,133.953L368,70.964L319.5,71.5L318.5,103.059L311.414,98.78C303.978,94.289 290.813,85.891 266.226,69.957C246.433,57.129 239.513,53 237.81,53C237.025,53 233.709,54.609 230.441,56.575ZM199.2,229.2C198.369,230.031 198,235.2 198,246C198,256.8 198.369,261.969 199.2,262.8C200.855,264.455 223.145,264.455 224.8,262.8C226.48,261.12 226.48,230.88 224.8,229.2C224.005,228.405 219.689,228 212,228C204.311,228 199.995,228.405 199.2,229.2Z" style="fill:rgb(84,84,84);"/>
    </g>
    <path d="M1076.57,975.958C1029.39,1001.2 942.848,1077.86 913.607,1120.33C908.086,1128.35 900.515,1138.25 896.782,1142.33C886.369,1153.7 849.057,1227.7 839.586,1255.75C821.877,1308.21 809.827,1373.09 809.673,1416.81C809.602,1436.85 812.452,1445.79 828.765,1476.72C852.873,1522.42 885.723,1565.45 935.373,1616.37C980.998,1663.16 999.14,1678.61 1047.81,1712.13C1080.07,1734.35 1169.92,1782.79 1178.99,1782.86C1180.92,1782.88 1187.43,1785.45 1193.45,1788.6C1199.47,1791.74 1219.16,1799.22 1237.2,1805.21C1530.87,1902.83 1854.81,1830.69 2062.95,1621.3C2102.94,1581.08 2158.37,1508.48 2176.35,1472.79C2187.54,1450.58 2188.76,1444.27 2188.74,1408.21C2188.7,1278.53 2133.14,1153.82 2033.17,1058.97C2002.24,1029.62 1956.18,993.742 1925.77,975.304C1895.82,957.15 1897.8,945.288 1896.08,1152.62C1894.37,1357.34 1894.4,1357.07 1866.97,1418.25C1829.87,1500.98 1771.07,1560.2 1683.18,1603.34C1578.75,1654.59 1457.17,1659.91 1350.86,1617.87C1291.28,1594.31 1254.37,1569.83 1207.34,1522.67C1170.42,1485.67 1162.94,1475.58 1143.78,1436.99C1108.88,1366.7 1108.36,1362.7 1106.53,1150.54C1105.33,1010.08 1103.75,966.167 1099.91,966.167C1097.14,966.167 1086.64,970.571 1076.57,975.958Z" style="fill:rgb(1,222,189);"/>
</svg>
